<svg width="26" height="25" viewBox="0 0 26 25" fill="none" xmlns="http://www.w3.org/2000/svg">
<path d="M23.7576 7.32343L20.1067 21.981C19.8467 23.0751 18.8717 23.8334 17.7451 23.8334H3.51006C1.87423 23.8334 0.704243 22.23 1.19174 20.6592L5.75257 6.01263C6.06673 4.9943 7.00925 4.29004 8.07092 4.29004H21.3959C22.4251 4.29004 23.2809 4.91838 23.6384 5.78504C23.8442 6.25088 23.8876 6.78176 23.7576 7.32343Z" stroke="#000181" stroke-width="1.5" stroke-miterlimit="10"/>
<path d="M17.3334 23.8333H22.5117C23.9092 23.8333 25.0034 22.6525 24.9059 21.255L23.8334 6.5" stroke="#000181" stroke-width="1.5" stroke-miterlimit="10" stroke-linecap="round" stroke-linejoin="round"/>
<path d="M10.4866 6.91188L11.6133 2.23193" stroke="#000181" stroke-width="1.5" stroke-miterlimit="10" stroke-linecap="round" stroke-linejoin="round"/>
<path d="M17.745 6.92233L18.7633 2.2207" stroke="#000181" stroke-width="1.5" stroke-miterlimit="10" stroke-linecap="round" stroke-linejoin="round"/>
<path d="M8.34174 13H17.0084" stroke="#000181" stroke-width="1.5" stroke-miterlimit="10" stroke-linecap="round" stroke-linejoin="round"/>
<path d="M7.25836 17.333H15.925" stroke="#000181" stroke-width="1.5" stroke-miterlimit="10" stroke-linecap="round" stroke-linejoin="round"/>
</svg>
