<svg width="28" height="27" viewBox="0 0 28 27" fill="none" xmlns="http://www.w3.org/2000/svg">
<path d="M25.6666 10.125V16.875C25.6666 19.6875 25.0833 21.6562 23.7767 22.9275L16.3333 15.75L25.3517 7.05371C25.5617 7.94246 25.6666 8.95496 25.6666 10.125Z" stroke="#000181" stroke-width="1.5" stroke-linecap="round" stroke-linejoin="round"/>
<path d="M25.3517 7.05375L7.31497 24.4462C3.8033 23.67 2.33331 21.33 2.33331 16.875V10.125C2.33331 4.5 4.66665 2.25 10.5 2.25H17.5C22.12 2.25 24.5467 3.6675 25.3517 7.05375Z" stroke="#000181" stroke-width="1.5" stroke-linecap="round" stroke-linejoin="round"/>
<path d="M23.7767 22.9275C22.4584 24.1875 20.4167 24.75 17.5 24.75H10.5C9.28668 24.75 8.23667 24.6487 7.315 24.4462L16.3333 15.75L23.7767 22.9275Z" stroke="#000181" stroke-width="1.5" stroke-linecap="round" stroke-linejoin="round"/>
<path d="M7.28 8.97756C8.07333 5.68131 13.2067 5.68131 14 8.97756C14.455 10.9126 13.195 12.5551 12.0867 13.5676C11.2817 14.3101 10.01 14.3101 9.19335 13.5676C8.08502 12.5551 6.81333 10.9126 7.28 8.97756Z" stroke="#000181" stroke-width="1.5"/>
<path d="M10.6104 9.7876H10.6209" stroke="#000181" stroke-width="2" stroke-linecap="round" stroke-linejoin="round"/>
</svg>
