<svg width="28" height="29" viewBox="0 0 28 29" fill="none" xmlns="http://www.w3.org/2000/svg">
<path d="M25.6666 6.35733V20.439C25.6666 21.559 24.7567 22.609 23.6367 22.749L23.2516 22.7957C20.7083 23.134 16.7883 24.429 14.5483 25.6656C14.2449 25.8406 13.7433 25.8406 13.4283 25.6656L13.3816 25.6424C11.1416 24.4174 7.23335 23.134 4.70168 22.7957L4.3633 22.749C3.2433 22.609 2.33331 21.559 2.33331 20.439V6.34565C2.33331 4.95732 3.46495 3.90733 4.85328 4.02399C7.30328 4.22233 11.0133 5.45902 13.0899 6.75402L13.3816 6.92898C13.7199 7.13898 14.28 7.13898 14.6183 6.92898L14.8167 6.80067C15.5517 6.34567 16.485 5.89066 17.5 5.48233V10.2423L19.8333 8.69066L22.1666 10.2423V4.15238C22.4816 4.09405 22.785 4.059 23.065 4.03567H23.135C24.5233 3.919 25.6666 4.95733 25.6666 6.35733Z" stroke="#000181" stroke-width="1.5" stroke-linecap="round" stroke-linejoin="round"/>
<path d="M14 7.31396V24.814" stroke="#000181" stroke-width="1.5" stroke-linecap="round" stroke-linejoin="round"/>
<path d="M22.1667 4.15234V10.2423L19.8333 8.69062L17.5 10.2423V5.48229C19.0283 4.87562 20.7317 4.38568 22.1667 4.15234Z" stroke="#000181" stroke-width="1.5" stroke-linecap="round" stroke-linejoin="round"/>
</svg>
