<svg width="29" height="29" viewBox="0 0 29 29" fill="none" xmlns="http://www.w3.org/2000/svg">
<path d="M10.875 26.5832H18.125C24.1667 26.5832 26.5834 24.1665 26.5834 18.1248V10.8748C26.5834 4.83317 24.1667 2.4165 18.125 2.4165H10.875C4.83335 2.4165 2.41669 4.83317 2.41669 10.8748V18.1248C2.41669 24.1665 4.83335 26.5832 10.875 26.5832Z" stroke="#000181" stroke-width="1.5" stroke-linecap="round" stroke-linejoin="round"/>
<path d="M22.2092 18.4514V9.15932C22.2092 8.22891 21.46 7.55225 20.5417 7.62475H20.4934C18.8742 7.75767 16.4213 8.59143 15.0438 9.44935L14.9109 9.53394C14.6934 9.66686 14.3187 9.66686 14.0891 9.53394L13.8958 9.4131C12.5304 8.55518 10.0775 7.74558 8.45834 7.61266C7.54001 7.54016 6.79083 8.22893 6.79083 9.14727V18.4514C6.79083 19.1885 7.39498 19.8893 8.13206 19.9739L8.34956 20.0102C10.0171 20.2277 12.603 21.0856 14.0771 21.8952L14.1133 21.9073C14.3187 22.0281 14.6571 22.0281 14.8504 21.9073C16.3246 21.0856 18.9225 20.2398 20.6021 20.0102L20.8558 19.9739C21.605 19.8893 22.2092 19.2006 22.2092 18.4514Z" stroke="#000181" stroke-width="1.5" stroke-linecap="round" stroke-linejoin="round"/>
<path d="M14.5 9.7876V21.3393" stroke="#000181" stroke-width="1.5" stroke-linecap="round" stroke-linejoin="round"/>
</svg>
