<svg width="28" height="28" viewBox="0 0 28 28" fill="none" xmlns="http://www.w3.org/2000/svg">
<path d="M19.8333 19.8332C23.055 19.8332 25.6667 17.2215 25.6667 13.9998C25.6667 10.7782 23.055 8.1665 19.8333 8.1665C16.6117 8.1665 14 10.7782 14 13.9998C14 17.2215 16.6117 19.8332 19.8333 19.8332Z" stroke="#000181" stroke-width="1.5" stroke-miterlimit="10" stroke-linecap="round" stroke-linejoin="round"/>
<path d="M14 25.6667C17.2217 25.6667 19.8334 23.055 19.8334 19.8333C19.8334 16.6117 17.2217 14 14 14C10.7784 14 8.16669 16.6117 8.16669 19.8333C8.16669 23.055 10.7784 25.6667 14 25.6667Z" stroke="#000181" stroke-width="1.5" stroke-miterlimit="10" stroke-linecap="round" stroke-linejoin="round"/>
<path d="M14 14.0002C17.2217 14.0002 19.8334 11.3885 19.8334 8.16683C19.8334 4.94517 17.2217 2.3335 14 2.3335C10.7784 2.3335 8.16669 4.94517 8.16669 8.16683C8.16669 11.3885 10.7784 14.0002 14 14.0002Z" stroke="#000181" stroke-width="1.5" stroke-miterlimit="10" stroke-linecap="round" stroke-linejoin="round"/>
<path d="M8.16665 19.8332C11.3883 19.8332 14 17.2215 14 13.9998C14 10.7782 11.3883 8.1665 8.16665 8.1665C4.94499 8.1665 2.33331 10.7782 2.33331 13.9998C2.33331 17.2215 4.94499 19.8332 8.16665 19.8332Z" stroke="#000181" stroke-width="1.5" stroke-miterlimit="10" stroke-linecap="round" stroke-linejoin="round"/>
</svg>
